<?xml version="1.0" encoding="UTF-8" standalone="no"?>
<svg
   version="1.1"
   id="Layer_1"
   x="0px"
   y="0px"
   width="100%"
   viewBox="0 0 322 320"
   enable-background="new 0 0 322 320"
   xml:space="preserve"
   sodipodi:docname="dude1.svg"
   inkscape:version="1.3.2 (091e20e, 2023-11-25)"
   xmlns:inkscape="http://www.inkscape.org/namespaces/inkscape"
   xmlns:sodipodi="http://sodipodi.sourceforge.net/DTD/sodipodi-0.dtd"
   xmlns="http://www.w3.org/2000/svg"
   xmlns:svg="http://www.w3.org/2000/svg"><defs
   id="defs9" /><sodipodi:namedview
   id="namedview9"
   pagecolor="#ffffff"
   bordercolor="#000000"
   borderopacity="0.25"
   inkscape:showpageshadow="2"
   inkscape:pageopacity="0.0"
   inkscape:pagecheckerboard="0"
   inkscape:deskcolor="#d1d1d1"
   inkscape:zoom="0.7375"
   inkscape:cx="160.67797"
   inkscape:cy="159.32203"
   inkscape:window-width="1440"
   inkscape:window-height="872"
   inkscape:window-x="0"
   inkscape:window-y="28"
   inkscape:window-maximized="0"
   inkscape:current-layer="Layer_1" />

<path
   fill="#FBFBFB"
   opacity="1.000000"
   stroke="none"
   d=" M206.376160,20.862251   C206.932922,23.113934 207.575699,25.028824 207.584686,26.946682   C207.664337,43.933762 207.218918,60.935486 207.799362,77.903099   C208.107697,86.916016 205.549500,94.698456 199.929962,101.046227   C191.173721,110.937172 181.592300,120.102943 172.223297,129.438263   C171.227676,130.430283 169.335098,130.851776 167.825760,130.933868   C164.006470,131.141556 160.118256,130.614853 156.349945,131.099701   C150.923843,131.797836 146.597321,129.824585 142.885803,126.375267   C131.240570,115.552711 119.461464,104.790276 113.230110,89.603249   C112.570213,87.994957 112.053146,86.189484 112.046051,84.473106   C111.965408,64.987839 111.975594,45.502068 112.009377,26.016520   C112.022675,18.349022 117.685013,12.874297 125.307976,12.882691   C148.056763,12.907743 170.807587,13.050115 193.553116,12.774857   C199.784805,12.699443 203.514084,15.420370 206.376160,20.862251  z"
   id="path2" />
<path
   fill="#FCFCFC"
   opacity="1.000000"
   stroke="none"
   d=" M298.365509,115.019821   C307.830719,118.692856 310.005432,121.846954 310.005371,131.290268   C310.005188,152.956223 310.009583,174.622192 310.003113,196.288147   C310.000854,203.770950 304.251190,210.207291 296.891388,210.268555   C276.893402,210.435043 256.888824,210.544556 236.897720,210.140396   C233.177902,210.065201 229.114426,208.090912 225.885666,205.965866   C213.344696,197.711884 202.169739,187.854507 193.315002,175.616638   C192.146866,174.002213 191.445999,171.807144 191.226852,169.804596   C190.884430,166.675659 191.518951,163.425171 191.060593,160.326630   C190.119995,153.968155 192.356781,148.677811 196.724518,144.626053   C205.958130,136.060379 215.386597,127.667542 225.195068,119.775429   C229.672638,116.172684 235.264297,114.748169 241.435944,114.865433   C260.261932,115.223160 279.098999,114.997719 298.365509,115.019821  z"
   id="path3" />
<path
   fill="#FCFCFC"
   opacity="1.000000"
   stroke="none"
   d=" M122.310471,146.775574   C125.422447,149.717438 126.563072,152.896210 126.066483,156.860977   C125.737831,159.484863 125.604156,162.257492 126.080963,164.834396   C127.452209,172.245285 123.834099,177.517532 119.143478,182.426956   C109.856598,192.147034 100.326828,201.634979 88.190025,207.805511   C85.219894,209.315567 81.594597,210.176010 78.256630,210.217499   C59.770374,210.447205 41.279819,210.343521 22.790756,210.329391   C13.376006,210.322205 7.995442,204.998199 7.995247,195.756927   C7.994771,173.103638 7.988451,150.450363 7.998607,127.797073   C8.001629,121.056595 13.615235,115.082352 20.444288,115.041924   C40.598347,114.922638 60.756748,114.817238 80.905167,115.174194   C84.266319,115.233742 87.775223,117.291710 90.891548,119.013268   C103.287315,125.861038 113.012367,135.822998 122.310471,146.775574  z"
   id="path4" />
<path
   fill="#FFFFFF"
   opacity="1.000000"
   stroke="none"
   d=" M116.091217,309.952576   C115.844894,309.733154 115.609016,309.503021 115.236229,308.674133   C114.365814,302.429321 113.277519,296.789795 113.009262,291.111572   C112.648285,283.470886 112.719948,275.793884 112.966515,268.144073   C113.336868,256.653748 114.020020,245.173492 114.570175,233.688950   C114.570175,233.688950 114.640396,233.647476 114.991966,233.707352   C124.337402,223.452881 133.295654,213.107147 142.342697,202.839676   C145.945374,198.751022 150.541916,196.937378 156.054489,197.280243   C159.320526,197.483368 162.640198,197.042267 165.878372,197.404266   C168.343292,197.679825 171.429016,198.042862 173.014709,199.607361   C181.857254,208.331909 190.620331,217.176361 198.819382,226.499741   C204.172867,232.587311 206.652802,239.893723 206.225693,248.488525   C205.581284,261.455658 206.079681,274.478607 206.050186,287.477692   C206.032684,295.186279 206.957169,303.011841 203.441101,310.324646   C203.441101,310.324646 203.363968,310.358521 203.002380,310.296631   C202.232147,310.928558 201.823532,311.622345 201.414917,312.316162   C201.414917,312.316162 201.341843,312.340515 200.899475,312.276184   C198.001419,312.512726 195.546783,313.064514 193.089828,313.075073   C171.957047,313.165802 150.823486,313.099792 129.691025,313.225403   C124.822357,313.254333 120.126045,313.127991 116.091217,309.952576  z"
   id="path5" />
<path
   fill="#ADADAD"
   opacity="1.000000"
   stroke="none"
   d=" M203.775757,310.229431   C206.957169,303.011841 206.032684,295.186279 206.050186,287.477692   C206.079681,274.478607 205.581284,261.455658 206.225693,248.488525   C206.652802,239.893723 204.172867,232.587311 198.819382,226.499741   C190.620331,217.176361 181.857254,208.331909 173.014709,199.607361   C171.429016,198.042862 168.343292,197.679825 165.878372,197.404266   C162.640198,197.042267 159.320526,197.483368 156.054489,197.280243   C150.541916,196.937378 145.945374,198.751022 142.342697,202.839676   C133.295654,213.107147 124.337402,223.452881 115.001785,233.667770   C119.930389,226.222839 124.757423,218.497833 130.615128,211.655167   C135.086441,206.431992 140.725189,202.154068 146.135666,197.818939   C147.986755,196.335724 150.702713,195.246613 153.055801,195.183655   C171.869110,194.680466 171.842010,194.798752 185.121841,208.016846   C193.617889,216.473404 201.567078,225.332352 206.574249,236.395676   C207.358795,238.129105 207.967941,240.121841 207.977814,241.998245   C208.080322,261.462982 208.223953,280.931732 207.868423,300.390472   C207.808685,303.660187 205.421951,306.887360 203.775757,310.229431  z"
   id="path6" />
<path
   fill="#ADADAD"
   opacity="1.000000"
   stroke="none"
   d=" M116.067749,310.310669   C120.126045,313.127991 124.822357,313.254333 129.691025,313.225403   C150.823486,313.099792 171.957047,313.165802 193.089828,313.075073   C195.546783,313.064514 198.001419,312.512726 200.887115,312.312653   C199.363403,313.318756 197.415649,314.996490 195.455048,315.011658   C171.748154,315.194946 148.037262,315.279877 124.333931,314.937988   C121.550766,314.897858 118.806549,312.157410 116.067749,310.310669  z"
   id="path7" />
<path
   fill="#ADADAD"
   opacity="1.000000"
   stroke="none"
   d=" M114.267021,233.859161   C114.020020,245.173492 113.336868,256.653748 112.966515,268.144073   C112.719948,275.793884 112.648285,283.470886 113.009262,291.111572   C113.277519,296.789795 114.365814,302.429321 115.076630,308.485321   C113.927940,306.340057 111.840706,303.808502 111.805878,301.248993   C111.534508,281.307831 111.578384,261.360596 111.761337,241.417419   C111.783989,238.948212 113.195778,236.491760 114.267021,233.859161  z"
   id="path8" />
<path
   fill="#ADADAD"
   opacity="1.000000"
   stroke="none"
   d=" M201.706192,312.283630   C201.823532,311.622345 202.232147,310.928558 202.985779,310.335388   C202.886353,311.041016 202.441925,311.646088 201.706192,312.283630  z"
   id="path9" />
</svg>
