<?xml version="1.0" encoding="UTF-8" standalone="no"?>
<svg
   version="1.1"
   viewBox="-5 -10 110 110"
   id="svg2"
   sodipodi:docname="home.svg"
   width="110"
   height="110"
   inkscape:version="1.3.2 (091e20e, 2023-11-25)"
   xmlns:inkscape="http://www.inkscape.org/namespaces/inkscape"
   xmlns:sodipodi="http://sodipodi.sourceforge.net/DTD/sodipodi-0.dtd"
   xmlns="http://www.w3.org/2000/svg"
   xmlns:svg="http://www.w3.org/2000/svg">
  <defs
     id="defs2" />
  <sodipodi:namedview
     id="namedview2"
     pagecolor="#ffffff"
     bordercolor="#000000"
     borderopacity="0.25"
     inkscape:showpageshadow="2"
     inkscape:pageopacity="0.0"
     inkscape:pagecheckerboard="0"
     inkscape:deskcolor="#d1d1d1"
     inkscape:zoom="1.7481481"
     inkscape:cx="55.201271"
     inkscape:cy="67.5"
     inkscape:window-width="1312"
     inkscape:window-height="449"
     inkscape:window-x="0"
     inkscape:window-y="25"
     inkscape:window-maximized="0"
     inkscape:current-layer="svg2" />
  <path
     d="M 61.712483,84.75586 V 61.504987 c 0,-1.407836 -0.578635,-2.688185 -1.508145,-3.617683 -0.92951,-0.929499 -2.214281,-1.508146 -3.617684,-1.508146 l -14.407284,-0.0046 c -1.407835,0 -2.688185,0.578636 -3.617683,1.508146 -0.929498,0.92951 -1.508146,2.209731 -1.508146,3.617684 v 23.255538 z m -29.155152,0 H 16.92067 c -0.373607,0 -0.706216,-0.145798 -0.943133,-0.387277 h -0.0046 l 0.0046,-0.0046 C 15.736058,84.122504 15.585698,83.785347 15.585698,83.420849 L 15.581098,44.351358 48.70082,19.715977 c 0.205028,-0.154908 0.441958,-0.227808 0.678876,-0.227808 0.236917,0 0.473847,0.07746 0.678875,0.227808 l 33.119722,24.635381 v 39.064826 c 0,0.373607 -0.145799,0.706216 -0.387278,0.943134 l -0.0091,0.0091 c -0.236917,0.236917 -0.569526,0.387277 -0.943133,0.387277 H 66.211506 V 61.50487 c 0,-2.647128 -1.084384,-5.052813 -2.824888,-6.797853 -1.74049,-1.74504 -4.150725,-2.824886 -6.797853,-2.824886 l -14.407283,-0.0046 c -2.647129,0 -5.057362,1.084383 -6.797854,2.824887 -1.74504,1.74504 -2.824886,4.150725 -2.824886,6.797853 z M 86.625466,41.326393 c 0.10024,0.06379 0.19592,0.132129 0.282489,0.209589 l 5.973214,4.442324 h 0.0046 c 0.742667,0.551306 1.640182,0.751775 2.492232,0.624207 0.852015,-0.123021 1.653945,-0.574087 2.200633,-1.312193 l 0.0046,-0.0091 c 0.546746,-0.738105 0.747216,-1.635632 0.619636,-2.487682 -0.12302,-0.852015 -0.574077,-1.653945 -1.307632,-2.200633 h -0.0046 L 82.028409,29.534921 c -0.592306,-0.437397 -0.906684,-1.116273 -0.906684,-1.799745 h -0.0091 V 13.423537 c 0,-0.309828 -0.127579,-0.592305 -0.332608,-0.792785 -0.205029,-0.205028 -0.487517,-0.332609 -0.792786,-0.332609 h -4.141592 c -0.309817,0 -0.592306,0.127581 -0.792785,0.332609 -0.205029,0.205028 -0.332609,0.487517 -0.332609,0.792785 v 6.210109 c 0,1.243841 -1.006923,2.246239 -2.246239,2.246239 -0.564977,0 -1.084384,-0.209589 -1.480735,-0.555856 L 50.06232,5.759684 c -0.205029,-0.15036 -0.441958,-0.227808 -0.678876,-0.227808 -0.236918,0 -0.473847,0.07746 -0.678875,0.227808 L 2.0127006,40.491361 c -0.077456,0.06834 -0.1594692,0.132129 -0.2460388,0.186809 -0.674315,0.546747 -1.0843837,1.312192 -1.2027842,2.118636 -0.1184589,0.811004 0.054675,1.663043 0.5467466,2.38294 0.059231,0.06834 0.1139063,0.141239 0.1594692,0.214138 0.5467465,0.674316 1.312192,1.084384 2.1186354,1.202785 0.8110046,0.118459 1.6630429,-0.05467 2.3829405,-0.546747 0.082006,-0.06834 0.164018,-0.12758 0.2505881,-0.182249 L 11.85877,41.530092 c 0.08657,-0.07746 0.182248,-0.150359 0.282488,-0.209589 L 46.035465,16.106591 c 1.006923,-0.751775 2.177889,-1.125382 3.34883,-1.125382 1.170942,0 2.341884,0.373607 3.348831,1.125382 z m 1.052483,6.369554 v 35.725444 c 0,1.59924 -0.656096,3.052683 -1.708533,4.114216 l -0.01367,0.01367 c -1.061605,1.052482 -2.510427,1.703983 -4.109668,1.703983 H 16.919994 c -1.599242,0 -3.057233,-0.656096 -4.118767,-1.717747 l -0.0046,0.0046 C 11.739635,86.48302 11.088146,85.025087 11.088146,83.416631 V 47.695854 l -2.52874,1.881741 -0.0046,0.0046 C 6.8188977,50.876157 4.7230062,51.340848 2.741071,51.04925 0.7636859,50.757651 -1.1044087,49.714314 -2.3982881,47.98292 l -0.013669,-0.01823 c -1.2894294,-1.73596 -1.7586693,-3.831851 -1.467071,-5.813785 0.2915981,-1.977386 1.3394854,-3.85003 3.0708788,-5.144026 l 0.013669,-0.0091 L 46.038521,2.1610943 c 1.006924,-0.751775 2.177889,-1.1253824 3.34883,-1.1253824 1.170942,0 2.341884,0.3736074 3.34883,1.1253824 L 70.227407,15.173371 v -1.74504 c 0,-1.549085 0.633316,-2.957038 1.649396,-3.972967 1.016079,-1.015928 2.42388,-1.649395 3.972967,-1.649395 h 4.141627 c 1.549086,0 2.957039,0.628755 3.972967,1.649395 1.016033,1.016034 1.649397,2.423882 1.649397,3.972967 l -0.0091,13.186071 13.819429,10.278835 c 0.10481,0.06834 0.20958,0.1458 0.30526,0.232369 1.64018,1.289447 2.63348,3.107387 2.91598,5.02552 0.28249,1.918133 -0.14579,3.941124 -1.34858,5.645107 -0.073,0.11846 -0.15491,0.227809 -0.25059,0.332609 -1.28944,1.640182 -3.107383,2.633482 -5.025519,2.915981 -1.918133,0.282489 -3.941124,-0.145798 -5.645108,-1.348583 -0.104785,-0.06379 -0.209589,-0.141237 -0.305268,-0.227807 z"
     fill-rule="evenodd"
     id="path1"
     style="stroke-width:1.16639;fill:#ffffff" />
</svg>
