<?xml version="1.0" encoding="UTF-8" standalone="no"?>
<!-- Uploaded to: SVG Repo, www.svgrepo.com, Generator: SVG Repo Mixer Tools -->

<svg
   fill="#000000"
   version="1.1"
   id="Layer_1"
   width="800px"
   height="800px"
   viewBox="0 0 92 92"
   enable-background="new 0 0 92 92"
   xml:space="preserve"
   sodipodi:docname="info.svg"
   inkscape:version="1.3.2 (091e20e, 2023-11-25)"
   xmlns:inkscape="http://www.inkscape.org/namespaces/inkscape"
   xmlns:sodipodi="http://sodipodi.sourceforge.net/DTD/sodipodi-0.dtd"
   xmlns="http://www.w3.org/2000/svg"
   xmlns:svg="http://www.w3.org/2000/svg"><defs
   id="defs1" /><sodipodi:namedview
   id="namedview1"
   pagecolor="#ffffff"
   bordercolor="#000000"
   borderopacity="0.25"
   inkscape:showpageshadow="2"
   inkscape:pageopacity="0.0"
   inkscape:pagecheckerboard="0"
   inkscape:deskcolor="#d1d1d1"
   inkscape:zoom="0.295"
   inkscape:cx="398.30508"
   inkscape:cy="400"
   inkscape:window-width="1312"
   inkscape:window-height="449"
   inkscape:window-x="0"
   inkscape:window-y="25"
   inkscape:window-maximized="0"
   inkscape:current-layer="Layer_1" />
<path
   id="XMLID_89_"
   d="M43.3,73.8c-0.8,0-1.6-0.3-2.2-0.8c-1-0.8-1.5-2.1-1.2-3.4l4.9-25l-2.7,1.5c-1.7,0.9-3.8,0.4-4.8-1.3  c-0.9-1.7-0.4-3.8,1.3-4.8l9.3-5.3c1.2-0.7,2.7-0.6,3.8,0.2c1.1,0.8,1.6,2.2,1.4,3.5L48,64.4l4.2-1.8c1.8-0.8,3.8,0,4.6,1.8  c0.8,1.8,0,3.8-1.8,4.6l-10.3,4.5C44.3,73.7,43.8,73.8,43.3,73.8z M53.2,26c0.9-0.9,1.5-2.2,1.5-3.5c0-1.3-0.5-2.6-1.5-3.5  c-0.9-0.9-2.2-1.5-3.5-1.5c-1.3,0-2.6,0.5-3.5,1.5c-0.9,0.9-1.5,2.2-1.5,3.5c0,1.3,0.5,2.6,1.5,3.5c0.9,0.9,2.2,1.5,3.5,1.5  C51,27.5,52.3,27,53.2,26z M92,46C92,20.6,71.4,0,46,0S0,20.6,0,46s20.6,46,46,46S92,71.4,92,46z M84,46c0,21-17,38-38,38S8,67,8,46  S25,8,46,8S84,25,84,46z"
   style="fill:#ffffff" />
</svg>
