<?xml version="1.0" encoding="UTF-8" standalone="no"?>
<svg
   version="1.1"
   viewBox="-5 -10 110 110"
   id="svg3"
   sodipodi:docname="leaderboard.svg"
   width="110"
   height="110"
   inkscape:version="1.3.2 (091e20e, 2023-11-25)"
   xmlns:inkscape="http://www.inkscape.org/namespaces/inkscape"
   xmlns:sodipodi="http://sodipodi.sourceforge.net/DTD/sodipodi-0.dtd"
   xmlns="http://www.w3.org/2000/svg"
   xmlns:svg="http://www.w3.org/2000/svg">
  <defs
     id="defs3" />
  <sodipodi:namedview
     id="namedview3"
     pagecolor="#ffffff"
     bordercolor="#000000"
     borderopacity="0.25"
     inkscape:showpageshadow="2"
     inkscape:pageopacity="0.0"
     inkscape:pagecheckerboard="0"
     inkscape:deskcolor="#d1d1d1"
     inkscape:zoom="1.7481481"
     inkscape:cx="55.201271"
     inkscape:cy="67.5"
     inkscape:window-width="1312"
     inkscape:window-height="449"
     inkscape:window-x="0"
     inkscape:window-y="25"
     inkscape:window-maximized="0"
     inkscape:current-layer="svg3" />
  <path
     d="m 35.938,26.812 v 2.8594 c 0,2.5781 2.1094,4.6875 4.6875,4.6875 h 18.75 c 2.5781,0 4.6875,-2.1094 4.6875,-4.6875 V 26.812 L 70.2192,9.874 C 70.43795,9.26462 70.266075,8.5615 69.76608,8.1396 69.266085,7.7177 68.54728,7.65522 67.98488,7.98335 l -9.7188,5.5469 -6.9844,-9.7969 c -0.59375,-0.82812 -1.9531,-0.82812 -2.5469,0 l -6.9844,9.7969 -9.7188,-5.5469 c -0.5625,-0.32812 -1.2812,-0.26562 -1.7812,0.15625 -0.5,0.42187 -0.6875,1.1094 -0.45312,1.7344 l 6.1562,16.938 z m 25,2.8594 c 0,0.85938 -0.70312,1.5625 -1.5625,1.5625 h -18.75 c -0.85938,0 -1.5625,-0.70312 -1.5625,-1.5625 V 28.1089 H 60.938 Z M 41.407,16.9524 c 0.70312,0.39062 1.5781,0.20312 2.0469,-0.45312 l 6.5469,-9.1562 6.5469,9.1562 c 0.46875,0.65625 1.3438,0.84375 2.0469,0.45312 l 7.2344,-4.1406 -4.4219,12.156 h -22.812 l -4.4219,-12.156 z"
     id="path1"
     style="fill:#ffffff" />
  <path
     d="M 90.625,87.5 H 89.0625 V 67.172 c 0,-2.5781 -2.1094,-4.6875 -4.6875,-4.6875 h -18.75 c -0.54688,0 -1.0781,0.10938 -1.5625,0.28125 v -20.609 c 0,-2.5781 -2.1094,-4.6875 -4.6875,-4.6875 h -18.75 c -2.5781,0 -4.6875,2.1094 -4.6875,4.6875 v 8.1094 C 35.45312,50.09427 34.9219,49.9849 34.375,49.9849 h -18.75 c -2.5781,0 -4.6875,2.1094 -4.6875,4.6875 v 32.828 H 9.375 c -1.7188,0 -3.125,1.4062 -3.125,3.125 v 3.125 c 0,1.7188 1.4062,3.125 3.125,3.125 h 81.25 c 1.7188,0 3.125,-1.4062 3.125,-3.125 v -3.125 c 0,-1.7188 -1.4062,-3.125 -3.125,-3.125 z m -25,-21.891 h 18.75 c 0.85938,0 1.5625,0.70312 1.5625,1.5625 v 20.328 h -21.875 v -20.328 c 0,-0.85938 0.70312,-1.5625 1.5625,-1.5625 z M 39.063,42.156 c 0,-0.85938 0.70312,-1.5625 1.5625,-1.5625 h 18.75 c 0.85938,0 1.5625,0.70312 1.5625,1.5625 V 87.484 H 39.063 Z m -25,12.5 c 0,-0.85938 0.70312,-1.5625 1.5625,-1.5625 h 18.75 c 0.85938,0 1.5625,0.70312 1.5625,1.5625 V 87.484 H 14.063 Z M 9.3755,93.734 v -3.125 h 81.25 v 3.125 z"
     id="path2"
     style="fill:#ffffff" />
</svg>
