<?xml version="1.0" encoding="UTF-8" standalone="no"?>
<!-- Uploaded to: SVG Repo, www.svgrepo.com, Generator: SVG Repo Mixer Tools -->

<svg
   width="800px"
   height="800px"
   viewBox="0 0 16 16"
   fill="none"
   version="1.1"
   id="svg2"
   sodipodi:docname="token.svg"
   inkscape:version="1.3.2 (091e20e, 2023-11-25)"
   xmlns:inkscape="http://www.inkscape.org/namespaces/inkscape"
   xmlns:sodipodi="http://sodipodi.sourceforge.net/DTD/sodipodi-0.dtd"
   xmlns="http://www.w3.org/2000/svg"
   xmlns:svg="http://www.w3.org/2000/svg">
  <defs
     id="defs2" />
  <sodipodi:namedview
     id="namedview2"
     pagecolor="#ffffff"
     bordercolor="#000000"
     borderopacity="0.25"
     inkscape:showpageshadow="2"
     inkscape:pageopacity="0.0"
     inkscape:pagecheckerboard="0"
     inkscape:deskcolor="#d1d1d1"
     inkscape:zoom="0.295"
     inkscape:cx="398.30508"
     inkscape:cy="401.69492"
     inkscape:window-width="1312"
     inkscape:window-height="722"
     inkscape:window-x="0"
     inkscape:window-y="25"
     inkscape:window-maximized="0"
     inkscape:current-layer="g2" />
  <g
     fill="#000000"
     fill-rule="evenodd"
     clip-rule="evenodd"
     id="g2">
    <path
       d="M5.791 3.318L3.316 5.793a1 1 0 000 1.414l2.475 2.475a1 1 0 001.415 0L9.68 7.207a1 1 0 000-1.414L7.206 3.318a1 1 0 00-1.415 0zm.707 4.95L4.731 6.5l1.767-1.768L8.266 6.5 6.498 8.268z"
       id="path1"
       style="fill:#ffffff" />
    <path
       d="M0 6.5a6.5 6.5 0 0112.346-2.845 6.5 6.5 0 11-8.691 8.691A6.5 6.5 0 010 6.5zm6.5-5a5 5 0 100 10 5 5 0 000-10zm6.5 5c0-.201-.01-.4-.027-.597a5 5 0 11-7.07 7.07A6.5 6.5 0 0013 6.5z"
       id="path2"
       style="fill:#ffffff;fill-opacity:1;stroke:#c2c2c2;stroke-opacity:1;stroke-width:0.086;stroke-dasharray:none" />
  </g>
</svg>
