<?xml version="1.0" encoding="UTF-8" standalone="no"?>
<!-- Created with Inkscape (http://www.inkscape.org/) -->

<svg
   width="128mm"
   height="140mm"
   viewBox="0 0 128 140"
   version="1.1"
   id="svg1"
   xml:space="preserve"
   inkscape:version="1.3.2 (091e20e, 2023-11-25)"
   sodipodi:docname="wallet1.svg"
   xmlns:inkscape="http://www.inkscape.org/namespaces/inkscape"
   xmlns:sodipodi="http://sodipodi.sourceforge.net/DTD/sodipodi-0.dtd"
   xmlns="http://www.w3.org/2000/svg"
   xmlns:svg="http://www.w3.org/2000/svg"><sodipodi:namedview
     id="namedview1"
     pagecolor="#ffffff"
     bordercolor="#000000"
     borderopacity="0.25"
     inkscape:showpageshadow="2"
     inkscape:pageopacity="0.0"
     inkscape:pagecheckerboard="0"
     inkscape:deskcolor="#d1d1d1"
     inkscape:document-units="mm"
     inkscape:zoom="0.82304967"
     inkscape:cx="171.92158"
     inkscape:cy="266.69107"
     inkscape:window-width="1312"
     inkscape:window-height="780"
     inkscape:window-x="0"
     inkscape:window-y="25"
     inkscape:window-maximized="0"
     inkscape:current-layer="layer1" /><defs
     id="defs1" /><g
     inkscape:label="Layer 1"
     inkscape:groupmode="layer"
     id="layer1"><path
       d="M 95.083399,70.367275 H 112.75227 V 68.3829 c -1.00806,-3.741208 -2.61673,-6.275916 -4.70164,-7.821083 -2.07963,-1.539875 -4.78367,-2.201333 -7.95338,-2.177521 l -74.226205,0.01588 c -1.783292,0 -3.230563,-1.444625 -3.230563,-3.227916 0,-1.783292 1.447271,-3.230563 3.230563,-3.230563 l 9.480021,0.0026 C 34.059899,50.007588 32.977753,47.920026 32.133732,45.718692 31.636316,44.414296 31.218274,43.072859 30.892836,41.69438 H 20.182503 c -3.024187,0 -5.7785,1.240896 -7.776104,3.2385 -1.994958,1.994958 -3.2358545,4.749271 -3.2358545,7.773458 v 67.849752 c 0,3.0189 1.2435425,5.77321 3.2411465,7.76817 1.989667,2.00554 4.743979,3.24379 7.770812,3.24379 h 81.557817 c 3.01889,0 5.7732,-1.24354 7.77345,-3.2385 1.99496,-2.00025 3.2385,-4.75456 3.2385,-7.77346 v -9.6811 H 95.083399 c -5.45835,0 -10.41929,-2.23309 -14.007042,-5.82084 L 80.73769,104.68638 C 77.348378,101.11715 75.255523,96.307025 75.255523,91.047108 V 90.19515 c 0,-5.431896 2.230438,-10.384896 5.820834,-13.985875 l 0.0344,-0.0344 c 3.598332,-3.582458 8.546042,-5.807604 13.972642,-5.807604 z M 64.103336,47.594588 H 60.70344 58.039086 54.636545 Z m -21.973645,4.34975 39.26152,0.0053 c 4.172478,-4.661959 6.712478,-10.816167 6.712478,-17.565688 0,-14.552083 -11.792478,-26.3419163 -26.33927,-26.3419163 -14.549437,0 -26.341916,11.7898333 -26.341916,26.3419163 0,6.749521 2.534708,12.901084 6.707188,17.560396 z m 46.037498,0.0053 11.842751,0.0026 c 4.55613,-0.04233 8.57515,0.994833 11.8745,3.439583 0.29633,0.219604 0.58473,0.449791 0.86783,0.690562 V 52.7063 c 0,-3.013604 -1.24354,-5.770562 -3.24379,-7.770812 -1.98702,-2.00025 -4.73604,-3.241146 -7.76816,-3.241146 h -9.106961 c -0.32544,1.375833 -0.74348,2.719916 -1.2409,4.021666 -0.84666,2.20398 -1.93146,4.294188 -3.22527,6.233584 z m 5.3049,-16.713729 h 8.268231 c 4.7916,0 9.15987,1.971146 12.32958,5.140854 3.17235,3.159125 5.14085,7.532687 5.14085,12.329583 V 70.5472 c 1.86267,0.373062 3.53219,1.296458 4.82336,2.587625 1.70391,1.703917 2.76754,4.066646 2.76754,6.6675 v 21.235465 c 0,2.68816 -1.10596,5.14879 -2.89983,6.94002 -1.28556,1.30158 -2.91105,2.21564 -4.69107,2.63789 v 9.9404 c 0,4.78631 -1.97114,9.15194 -5.13556,12.319 l -0.0159,0.0132 c -3.16442,3.16442 -7.53269,5.13821 -12.319,5.13821 H 20.182503 c -4.786312,0 -9.157229,-1.97115 -12.3322295,-5.14086 -3.169708,-3.15648 -5.138208,-7.52475 -5.138208,-12.32958 V 52.706338 c 0,-4.807479 1.965854,-9.178396 5.130271,-12.340166 3.1617715,-3.164417 7.5300415,-5.130271 12.3401665,-5.130271 h 9.871604 l -0.01323,-0.851959 c 0,-8.757708 3.553354,-16.692562 9.292167,-22.431374 l 0.33073,-0.304271 c 5.715,-5.5588962 13.512271,-8.9852503 22.100645,-8.9852503 8.757709,0 16.689917,3.5507083 22.42873,9.2895213 l 0.30427,0.330729 c 5.56154,5.715 8.98525,13.512271 8.98525,22.100645 z m 3.24643,47.288978 c 2.12725,0 4.058711,0.865188 5.461001,2.264834 1.40759,1.410229 2.27277,3.341687 2.27277,5.468937 0,2.12725 -0.86518,4.061354 -2.26483,5.461 -1.41023,1.407589 -3.341691,2.272769 -5.468941,2.272769 -2.1246,0 -4.05606,-0.86783 -5.45835,-2.264832 l -0.0132,-0.01587 c -1.39964,-1.402291 -2.26219,-3.331104 -2.26219,-5.453062 0,-2.124604 0.86784,-4.056062 2.26748,-5.458354 l 0.0132,-0.01323 c 1.39965,-1.397 3.32846,-2.262188 5.45306,-2.262188 z"
       id="path1"
       sodipodi:nodetypes="scccccsccccsssscsscscsccssccscccccccssscccscscsccccscscsssccsccsscsscsccccsccccscscsccssss"
       style="clip-rule:evenodd;display:inline;fill-rule:evenodd;stroke-width:0.264583;image-rendering:optimizeQuality;shape-rendering:geometricPrecision;text-rendering:geometricPrecision" /><path
       class="st0"
       d="m 47.970988,40.072159 c 0.229328,-0.238967 0.544656,-0.378364 0.879099,-0.378364 h 30.328821 c 0.554214,0 0.831322,0.696987 0.439552,1.105222 l -5.991236,6.243025 c -0.22933,0.238971 -0.544658,0.378368 -0.879095,0.378368 H 42.419302 c -0.55421,0 -0.831318,-0.69699 -0.439548,-1.105226 z"
       id="path2"
       style="display:inline;fill:#000000;fill-opacity:1;stroke-width:0.097541" /><path
       class="st1"
       d="m 47.970988,16.762877 c 0.238885,-0.238969 0.554213,-0.378364 0.879099,-0.378364 h 30.328821 c 0.554214,0 0.831322,0.696987 0.439552,1.105222 l -5.991236,6.243026 c -0.22933,0.238966 -0.544658,0.378365 -0.879095,0.378365 H 42.419302 c -0.55421,0 -0.831318,-0.696991 -0.439548,-1.105227 z"
       id="path4"
       style="display:inline;fill:#000000;fill-opacity:1;stroke-width:0.097541" /><path
       class="st2"
       d="m 73.627224,28.342842 c -0.22933,-0.23897 -0.544658,-0.378365 -0.879095,-0.378365 H 42.419302 c -0.55421,0 -0.831318,0.696987 -0.439548,1.105223 l 5.991234,6.243025 c 0.229328,0.238967 0.544656,0.378365 0.879099,0.378365 h 30.328821 c 0.554214,0 0.831322,-0.696987 0.439552,-1.105224 z"
       id="path6"
       style="display:inline;fill:#000000;fill-opacity:1;stroke-width:0.097541" /></g><style
     type="text/css"
     id="style1">
	.st0{fill:url(#SVGID_1_);}
	.st1{fill:url(#SVGID_2_);}
	.st2{fill:url(#SVGID_3_);}
</style></svg>
