<?xml version="1.0" encoding="UTF-8" standalone="no"?>
<svg
   version="1.1"
   x="0px"
   y="0px"
   viewBox="0 0 64 64"
   xml:space="preserve"
   id="svg15"
   sodipodi:docname="whitepaper.svg"
   width="64"
   height="64"
   inkscape:version="1.3.2 (091e20e, 2023-11-25)"
   xmlns:inkscape="http://www.inkscape.org/namespaces/inkscape"
   xmlns:sodipodi="http://sodipodi.sourceforge.net/DTD/sodipodi-0.dtd"
   xmlns="http://www.w3.org/2000/svg"
   xmlns:svg="http://www.w3.org/2000/svg"><defs
     id="defs15" /><sodipodi:namedview
     id="namedview15"
     pagecolor="#ffffff"
     bordercolor="#000000"
     borderopacity="0.25"
     inkscape:showpageshadow="2"
     inkscape:pageopacity="0.0"
     inkscape:pagecheckerboard="0"
     inkscape:deskcolor="#d1d1d1"
     inkscape:zoom="2.95"
     inkscape:cx="0.16949153"
     inkscape:cy="37.288136"
     inkscape:window-width="1312"
     inkscape:window-height="449"
     inkscape:window-x="0"
     inkscape:window-y="25"
     inkscape:window-maximized="0"
     inkscape:current-layer="svg15" /><g
     id="g14"
     style="fill:#ffffff"><path
       d="M 62,55 H 55 V 6 C 55,3.243 52.757,1 50,1 H 6 C 3.243,1 1,3.243 1,6 v 2 c 0,0.553 0.447,1 1,1 h 7 v 49 c 0,2.757 2.243,5 5,5 h 44 c 2.757,0 5,-2.243 5,-5 v -2 c 0,-0.553 -0.447,-1 -1,-1 z M 3,6 C 3,4.346 4.346,3 6,3 H 46.002 C 45.373,3.836 45,4.875 45,6 V 7 H 3 Z m 14,50 v 2 c 0,1.654 -1.346,3 -3,3 -1.654,0 -3,-1.346 -3,-3 V 9 h 35 c 0.553,0 1,-0.447 1,-1 V 6 c 0,-1.654 1.346,-3 3,-3 1.654,0 3,1.346 3,3 V 55 H 18 c -0.553,0 -1,0.447 -1,1 z m 44,2 c 0,1.654 -1.346,3 -3,3 H 17.998 C 18.627,60.164 19,59.125 19,58 v -1 h 42 z"
       id="path1"
       style="fill:#ffffff" /><path
       d="m 22,29 c 4.963,0 9,-4.037 9,-9 0,-1.168 -0.221,-2.304 -0.655,-3.376 l -1.854,0.752 C 28.829,18.208 29,19.091 29,20 c 0,3.859 -3.141,7 -7,7 -3.859,0 -7,-3.141 -7,-7 0,-3.859 3.141,-7 7,-7 1.188,0 2.36,0.303 3.39,0.874 l 0.971,-1.748 C 25.035,11.39 23.527,11 22,11 c -4.963,0 -9,4.037 -9,9 0,4.963 4.037,9 9,9 z"
       id="path2"
       style="fill:#ffffff" /><path
       d="m 18.707,19.293 -1.414,1.414 4,4 C 21.481,24.896 21.736,25 22,25 c 0.039,0 0.078,-0.002 0.116,-0.007 0.305,-0.036 0.575,-0.208 0.735,-0.469 l 8,-13 -1.703,-1.049 -7.337,11.922 z"
       id="path3"
       style="fill:#ffffff" /><rect
       x="13"
       y="31"
       width="2"
       height="2"
       id="rect3"
       style="fill:#ffffff" /><rect
       x="17"
       y="31"
       width="34"
       height="2"
       id="rect4"
       style="fill:#ffffff" /><rect
       x="49"
       y="35"
       width="2"
       height="2"
       id="rect5"
       style="fill:#ffffff" /><rect
       x="13"
       y="35"
       width="34"
       height="2"
       id="rect6"
       style="fill:#ffffff" /><rect
       x="13"
       y="39"
       width="2"
       height="2"
       id="rect7"
       style="fill:#ffffff" /><rect
       x="17"
       y="39"
       width="34"
       height="2"
       id="rect8"
       style="fill:#ffffff" /><rect
       x="49"
       y="43"
       width="2"
       height="2"
       id="rect9"
       style="fill:#ffffff" /><rect
       x="13"
       y="43"
       width="34"
       height="2"
       id="rect10"
       style="fill:#ffffff" /><rect
       x="13"
       y="47"
       width="2"
       height="2"
       id="rect11"
       style="fill:#ffffff" /><rect
       x="17"
       y="47"
       width="34"
       height="2"
       id="rect12"
       style="fill:#ffffff" /><rect
       x="49"
       y="51"
       width="2"
       height="2"
       id="rect13"
       style="fill:#ffffff" /><rect
       x="13"
       y="51"
       width="34"
       height="2"
       id="rect14"
       style="fill:#ffffff" /></g></svg>
