<?xml version="1.0" encoding="UTF-8" standalone="no"?>
<svg
   data-name="svg"
   viewBox="0 0 170 170"
   x="0px"
   y="0px"
   version="1.1"
   id="svg8"
   sodipodi:docname="whitepaper1.svg"
   width="170"
   height="170"
   inkscape:version="1.3.2 (091e20e, 2023-11-25)"
   xmlns:inkscape="http://www.inkscape.org/namespaces/inkscape"
   xmlns:sodipodi="http://sodipodi.sourceforge.net/DTD/sodipodi-0.dtd"
   xmlns="http://www.w3.org/2000/svg"
   xmlns:svg="http://www.w3.org/2000/svg">
  <defs
     id="defs8" />
  <sodipodi:namedview
     id="namedview8"
     pagecolor="#ffffff"
     bordercolor="#000000"
     borderopacity="0.25"
     inkscape:showpageshadow="2"
     inkscape:pageopacity="0.0"
     inkscape:pagecheckerboard="0"
     inkscape:deskcolor="#d1d1d1"
     inkscape:zoom="1.1105882"
     inkscape:cx="85.090042"
     inkscape:cy="106.25"
     inkscape:window-width="1312"
     inkscape:window-height="449"
     inkscape:window-x="0"
     inkscape:window-y="25"
     inkscape:window-maximized="0"
     inkscape:current-layer="svg8" />
  <path
     d="m 150.473,54.902 c -0.006,-0.296 -0.029,-0.591 -0.087,-0.88 0,-0.004 -0.002,-0.008 -0.003,-0.012 -0.057,-0.283 -0.146,-0.558 -0.251,-0.827 -0.031,-0.08 -0.068,-0.157 -0.104,-0.236 -0.089,-0.198 -0.192,-0.389 -0.307,-0.575 -0.046,-0.073 -0.088,-0.147 -0.137,-0.219 -0.168,-0.242 -0.352,-0.475 -0.565,-0.689 l -45.001,-45 C 103.804,6.25 103.571,6.067 103.329,5.899 103.259,5.85 103.185,5.808 103.113,5.763 102.927,5.648 102.735,5.545 102.537,5.456 102.458,5.42 102.38,5.383 102.299,5.351 102.035,5.248 101.767,5.162 101.49,5.105 c -0.01,-0.002 -0.021,-0.007 -0.031,-0.009 -0.288,-0.057 -0.581,-0.08 -0.875,-0.087 -0.034,0 -0.067,-0.01 -0.101,-0.01 H 32.018 c -6.893,0 -12.5,5.607 -12.5,12.5 v 135 c 0,6.893 5.607,12.5 12.5,12.5 h 105.965 c 6.893,0 12.5,-5.607 12.5,-12.5 V 55 c 0,-0.033 -0.009,-0.065 -0.01,-0.098 z m -44.99,-32.83 27.929,27.929 h -27.929 z m 35,130.429 c 0,1.378 -1.121,2.5 -2.5,2.5 H 32.018 c -1.379,0 -2.5,-1.122 -2.5,-2.5 V 17.5 c 0,-1.378 1.121,-2.5 2.5,-2.5 h 63.465 v 36.25 c 0,4.825 3.925,8.75 8.75,8.75 h 36.25 v 92.5 z"
     stroke-width="0"
     id="path1"
     style="fill:#ffffff" />
  <path
     d="m 64.49,80.784 c 0,2.761 2.238,5 5,5 H 125 c 2.762,0 5,-2.239 5,-5 0,-2.761 -2.238,-5 -5,-5 H 69.49 c -2.762,0 -5,2.239 -5,5 z"
     stroke-width="0"
     id="path2"
     style="fill:#ffffff" />
  <path
     d="M 125,102.5 H 69.49 c -2.762,0 -5,2.239 -5,5 0,2.761 2.238,5 5,5 H 125 c 2.762,0 5,-2.239 5,-5 0,-2.761 -2.238,-5 -5,-5 z"
     stroke-width="0"
     id="path3"
     style="fill:#ffffff" />
  <path
     d="M 109,129.216 H 69.49 c -2.762,0 -5,2.239 -5,5 0,2.761 2.238,5 5,5 H 109 c 2.762,0 5,-2.239 5,-5 0,-2.761 -2.238,-5 -5,-5 z"
     stroke-width="0"
     id="path4"
     style="fill:#ffffff" />
  <path
     d="m 50.937,74.847 c -3.279,0 -5.937,2.658 -5.937,5.937 0,3.279 2.658,5.937 5.937,5.937 3.279,0 5.937,-2.658 5.937,-5.937 0,-3.279 -2.658,-5.937 -5.937,-5.937 z"
     stroke-width="0"
     id="path5"
     style="fill:#ffffff" />
  <path
     d="m 50.937,128.279 c -3.279,0 -5.937,2.658 -5.937,5.937 0,3.279 2.658,5.937 5.937,5.937 3.279,0 5.937,-2.658 5.937,-5.937 0,-3.279 -2.658,-5.937 -5.937,-5.937 z"
     stroke-width="0"
     id="path6"
     style="fill:#ffffff" />
  <path
     d="m 50.937,101.563 c -3.279,0 -5.937,2.658 -5.937,5.937 0,3.279 2.658,5.937 5.937,5.937 3.279,0 5.937,-2.658 5.937,-5.937 0,-3.279 -2.658,-5.937 -5.937,-5.937 z"
     stroke-width="0"
     id="path7"
     style="fill:#ffffff" />
</svg>
