<?xml version="1.0" encoding="UTF-8" standalone="no"?>
<svg
   width="20"
   height="20"
   viewBox="0 0 24 24"
   fill="none"
   stroke="currentColor"
   stroke-width="2"
   stroke-linecap="round"
   stroke-linejoin="round"
   class="lucide lucide-briefcase "
   version="1.1"
   id="svg1"
   sodipodi:docname="dude1.svg"
   inkscape:version="1.3.2 (091e20e, 2023-11-25)"
   xmlns:inkscape="http://www.inkscape.org/namespaces/inkscape"
   xmlns:sodipodi="http://sodipodi.sourceforge.net/DTD/sodipodi-0.dtd"
   xmlns="http://www.w3.org/2000/svg"
   xmlns:svg="http://www.w3.org/2000/svg">
  <defs
     id="defs1" />
  <sodipodi:namedview
     id="namedview1"
     pagecolor="#ffffff"
     bordercolor="#000000"
     borderopacity="0.25"
     inkscape:showpageshadow="2"
     inkscape:pageopacity="0.0"
     inkscape:pagecheckerboard="0"
     inkscape:deskcolor="#d1d1d1"
     showgrid="false"
     inkscape:zoom="11.193447"
     inkscape:cx="4.6902442"
     inkscape:cy="21.441116"
     inkscape:window-width="1440"
     inkscape:window-height="779"
     inkscape:window-x="0"
     inkscape:window-y="25"
     inkscape:window-maximized="0"
     inkscape:current-layer="svg1" />
  <path
     d="m 17.842225,11.837524 h 3.24839 V 11.514039 C 20.905284,10.904161 20.609534,10.490961 20.226225,10.239075 19.84389,9.9880503 19.346757,9.8802223 18.764012,9.8841033 l -13.646348,0.0026 c -0.327854,0 -0.593934,-0.235497 -0.593934,-0.526203 0,-0.290706 0.26608,-0.526634 0.593934,-0.526634 l 1.742884,3.95e-4 C 6.62317,8.5185393 6.42422,8.1782323 6.269047,7.8193793 6.177597,7.6067413 6.100742,7.3880653 6.040911,7.1633513 H 4.071837 c -0.555992,0 -1.062367,0.202287 -1.429623,0.527928 C 2.275446,8.0164903 2.04731,8.4654883 2.04731,8.9584803 V 20.019096 c 0,0.49213 0.228621,0.941128 0.595877,1.266338 0.365797,0.326936 0.872173,0.528791 1.42865,0.528791 h 14.994249 c 0.555018,0 1.061394,-0.202717 1.429136,-0.527928 0.366769,-0.326073 0.595393,-0.775071 0.595393,-1.267201 v -1.578143 h -3.24839 c -1.003509,0 -1.915567,-0.364028 -2.575169,-0.94889 l -0.06226,-0.05995 C 14.581677,16.85027 14.19691,16.066142 14.19691,15.208689 v -0.138883 c 0,-0.885487 0.410062,-1.692907 1.070149,-2.279926 l 0.0063,-0.0056 c 0.661547,-0.584 1.571173,-0.946734 2.568844,-0.946734 z m -9.735439,-3.0032397 7.218155,8.79e-4 c 0.767103,-0.759976 1.234077,-1.763212 1.234077,-2.863494 0,-2.3722272 -2.168024,-4.2941632 -4.842426,-4.2941632 -2.674884,0 -4.842909,1.921936 -4.842909,4.2941632 0,1.100282 0.466,2.103087 1.233103,2.86263 z m 8.463907,8.79e-4 2.177268,3.95e-4 c 0.837634,-0.0069 1.576523,0.162175 2.183104,0.560708 0.05448,0.0358 0.107501,0.07332 0.15955,0.112574 v -0.550357 c 0,-0.491267 -0.228624,-0.940696 -0.596366,-1.26677 -0.36531,-0.326073 -0.870712,-0.528359 -1.428163,-0.528359 h -1.674297 c -0.05983,0.224283 -0.136687,0.44339 -0.228136,0.655597 -0.155658,0.359284 -0.355095,0.700023 -0.59296,1.016176 z m 0.975294,-2.724612 h 1.520099 c 0.880927,0 1.684025,0.32133 2.266771,0.838044 0.583231,0.514989 0.945136,1.227951 0.945136,2.009923 v 2.9083507 c 0.342448,0.06081 0.649386,0.211343 0.886765,0.421825 0.313261,0.277766 0.508807,0.662929 0.508807,1.086911 v 3.461726 c 0,0.438216 -0.203328,0.839337 -0.533129,1.131337 -0.236346,0.212179 -0.535191,0.361185 -0.862443,0.43002 v 1.620446 c 0,0.780248 -0.362391,1.491916 -0.944163,2.008199 l -0.0029,0.0022 c -0.581772,0.515852 -1.384871,0.837612 -2.264825,0.837612 H 4.071855 c -0.879955,0 -1.683539,-0.321329 -2.267258,-0.838043 C 1.221853,21.514545 0.85994803,20.802445 0.85994803,20.019178 V 8.9584923 c 0,-0.783697 0.36141697,-1.496228 0.94319097,-2.011648 0.581284,-0.515851 1.384383,-0.836318 2.268716,-0.836318 h 1.814874 l -0.0024,-0.138883 c 0,-1.42765 0.653279,-2.7211612 1.708348,-3.6566812 l 0.06081,-0.0496 c 1.05069,-0.90619 2.484203,-1.46474198 4.063159,-1.46474198 1.61009,0 3.068411,0.57882298 4.123481,1.51434298 l 0.05594,0.05391 c 1.022479,0.931639 1.651921,2.2027212 1.651921,3.6027672 z m 0.596852,7.7088757 c 0.391091,0 0.746186,0.14104 1.003994,0.369205 0.258782,0.22989 0.417846,0.54475 0.417846,0.891526 0,0.346777 -0.159064,0.662067 -0.416386,0.890232 -0.259268,0.229459 -0.614363,0.370499 -1.005454,0.370499 -0.390604,0 -0.745699,-0.141471 -1.003508,-0.369205 l -0.0024,-0.0026 c -0.257322,-0.228596 -0.415899,-0.543025 -0.415899,-0.888938 0,-0.346345 0.159549,-0.661205 0.416872,-0.889801 l 0.0024,-0.0022 c 0.257322,-0.227733 0.611931,-0.368774 1.002535,-0.368774 z"
     id="path1-0"
     style="display:inline;stroke-width:1.4004;stroke-dasharray:none;stroke:#ffffff;stroke-opacity:1"
     sodipodi:nodetypes="ccccccsccccscsscsscscsccssscccccccsssccccccscscccccscscsssccsccsscsscsccccsccccccscsccscccc"
     inkscape:label="path1-0" />
  <path
     d="m 9.4630024,6.5791247 c 0.03676,-0.03676 0.086153,-0.05743 0.1378459,-0.05743 h 4.7843977 c 0.0873,0 0.130953,0.105681 0.06892,0.166563 l -0.945392,0.945393 c -0.03676,0.03676 -0.08615,0.05744 -0.137846,0.05744 H 8.5865323 c -0.087303,0 -0.1309532,-0.105682 -0.068923,-0.166564 z"
     id="path7"
     style="stroke-width:0.0229743;fill:#fefefe;fill-opacity:1" />
  <path
     d="m 9.4630024,3.0502727 c 0.03676,-0.03676 0.189472,-0.06004 0.1378459,-0.05744 -0.7693298,0.03876 2.9619427,0.0038 4.7843977,0 0.0873,-1.72e-4 0.130953,0.105681 0.06892,0.166564 l -0.945392,0.944243 c -0.03676,0.03676 -0.08615,0.05744 -0.137846,0.05744 H 8.5865323 c -0.087303,0 -0.1309532,-0.105682 -0.068923,-0.166564 z"
     id="path8"
     style="stroke-width:0.0229743;fill:#fdfdfd;fill-opacity:1;stroke:#ffffff;stroke-opacity:1"
     sodipodi:nodetypes="cssccsscc" />
  <path
     d="m 13.508776,4.8032117 c -0.03676,-0.03676 -0.08615,-0.05744 -0.137846,-0.05744 H 8.5865323 c -0.087303,0 -0.1309532,0.105682 -0.068923,0.166563 l 0.9453932,0.944244 c 0.03676,0.03676 0.086153,0.05744 0.1378459,0.05744 h 4.7843976 c 0.0873,0 0.130953,-0.105682 0.06892,-0.166563 z"
     id="path9"
     style="stroke-width:0.0229743;fill:#fafafa;fill-opacity:1;stroke:#ffffff;stroke-opacity:1" />
</svg>
