<?xml version="1.0" encoding="UTF-8" standalone="no"?>
<!-- Created with Inkscape (http://www.inkscape.org/) -->

<svg
   width="750"
   height="750"
   id="svg6312"
   sodipodi:version="0.32"
   inkscape:version="1.3.2 (091e20e, 2023-11-25)"
   sodipodi:modified="true"
   version="1.0"
   sodipodi:docname="explode1.svg"
   xmlns:inkscape="http://www.inkscape.org/namespaces/inkscape"
   xmlns:sodipodi="http://sodipodi.sourceforge.net/DTD/sodipodi-0.dtd"
   xmlns="http://www.w3.org/2000/svg"
   xmlns:svg="http://www.w3.org/2000/svg"
   xmlns:rdf="http://www.w3.org/1999/02/22-rdf-syntax-ns#"
   xmlns:cc="http://creativecommons.org/ns#"
   xmlns:dc="http://purl.org/dc/elements/1.1/">
  <defs
     id="defs6314" />
  <sodipodi:namedview
     id="base"
     pagecolor="#ffffff"
     bordercolor="#666666"
     borderopacity="1.0"
     inkscape:pageopacity="0.0"
     inkscape:pageshadow="2"
     inkscape:zoom="0.35"
     inkscape:cx="351.42857"
     inkscape:cy="321.42857"
     inkscape:document-units="px"
     inkscape:current-layer="g7579"
     inkscape:window-width="880"
     inkscape:window-height="622"
     inkscape:window-x="5"
     inkscape:window-y="25"
     inkscape:showpageshadow="2"
     inkscape:pagecheckerboard="0"
     inkscape:deskcolor="#d1d1d1"
     inkscape:window-maximized="0" />
  <metadata
     id="metadata6317">
    <rdf:RDF>
      <cc:Work
         rdf:about="">
        <dc:format>image/svg+xml</dc:format>
        <dc:type
           rdf:resource="http://purl.org/dc/dcmitype/StillImage" />
      </cc:Work>
    </rdf:RDF>
  </metadata>
  <g
     inkscape:label="Capa 1"
     inkscape:groupmode="layer"
     id="layer1"
     transform="translate(-107.4078,-172.05911)">
    <g
       id="g7579"
       transform="matrix(26.327895,0,0,25.905601,-11103.865,-13789.185)"
       style="display:inline">
      <polygon
         style="display:inline;fill:#ed211c;fill-opacity:1"
         id="polygon7581-2"
         points="435.167,554.676 431.256,555.618 432.888,551.941 428.063,547 434.786,548.926 438.063,542.25 438.238,549.801 444.313,551.25 438.475,553.354 438.161,557.364 "
         transform="matrix(1.448886,0,0,1.611002,-194.47967,-334.54997)" />
      <polygon
         style="display:inline;fill:#f82525;fill-opacity:1"
         id="polygon7583-3"
         points="436.727,554.135 433.563,560 433.908,553.153 430.899,551.584 433.875,550.098 434.319,546.69 436.675,549.193 439.958,548.655 438.438,551.688 443.313,556.5 "
         transform="matrix(2.1367,0,0,1.9993156,-492.94048,-552.23284)" />
      <polygon
         style="display:inline;fill:#ed1c24;stroke:#000000;stroke-opacity:1"
         id="polygon7581"
         points="432.888,551.941 428.063,547 434.786,548.926 438.063,542.25 438.238,549.801 444.313,551.25 438.475,553.354 438.161,557.364 435.167,554.676 431.256,555.618 "
         transform="matrix(0.89572829,0,0,1.0124081,47.283525,-4.8668255)" />
      <polygon
         style="display:inline;fill:none;fill-opacity:1;stroke:#000000;stroke-opacity:1"
         id="polygon7583"
         points="433.875,550.098 434.319,546.69 436.675,549.193 439.958,548.655 438.438,551.688 443.313,556.5 436.727,554.135 433.563,560 433.908,553.153 430.899,551.584 "
         transform="matrix(1.3209477,0,0,1.2564375,-137.23048,-141.66607)" />
      <polygon
         style="display:inline;fill:#fafc0d;fill-opacity:1"
         id="polygon1"
         points="432.888,551.941 428.063,547 434.786,548.926 438.063,542.25 438.238,549.801 444.313,551.25 438.475,553.354 438.161,557.364 435.167,554.676 431.256,555.618 "
         transform="matrix(1.2757558,0,0,1.0999979,-117.94344,-54.223825)" />
      <polygon
         style="display:inline;fill:#0dfc52;fill-opacity:1;stroke:none;stroke-opacity:1"
         id="polygon2"
         points="430.899,551.584 433.875,550.098 434.319,546.69 436.675,549.193 439.958,548.655 438.438,551.688 443.313,556.5 436.727,554.135 433.563,560 433.908,553.153 "
         transform="matrix(1.2757558,0,0,1.054881,-117.74862,-30.441107)" />
      <polygon
         style="display:inline;fill:#fea50b;fill-opacity:1"
         id="polygon3"
         points="434.319,546.69 436.675,549.193 439.958,548.655 438.438,551.688 443.313,556.5 436.727,554.135 433.563,560 433.908,553.153 430.899,551.584 433.875,550.098 "
         transform="matrix(1.0286047,0,0,0.88745913,-9.9973461,61.85387)" />
      <polygon
         style="display:inline;fill:#fe9f0b;fill-opacity:1;stroke:none;stroke-opacity:1"
         id="polygon4"
         points="432.888,551.941 428.063,547 434.786,548.926 438.063,542.25 438.238,549.801 444.313,551.25 438.475,553.354 438.161,557.364 435.167,554.676 431.256,555.618 "
         transform="matrix(0.6974919,0,0,0.71509394,133.6813,158.19205)" />
    </g>
  </g>
</svg>
