<?xml version="1.0" encoding="UTF-8" standalone="no"?>
<!-- Created with Inkscape (http://www.inkscape.org/) -->

<svg
   width="676.612"
   height="620.60699"
   id="svg6312"
   sodipodi:version="0.32"
   inkscape:version="1.3.2 (091e20e, 2023-11-25)"
   sodipodi:modified="true"
   version="1.0"
   sodipodi:docname="explode.svg"
   xmlns:inkscape="http://www.inkscape.org/namespaces/inkscape"
   xmlns:sodipodi="http://sodipodi.sourceforge.net/DTD/sodipodi-0.dtd"
   xmlns="http://www.w3.org/2000/svg"
   xmlns:svg="http://www.w3.org/2000/svg"
   xmlns:rdf="http://www.w3.org/1999/02/22-rdf-syntax-ns#"
   xmlns:cc="http://creativecommons.org/ns#"
   xmlns:dc="http://purl.org/dc/elements/1.1/">
  <defs
     id="defs6314" />
  <sodipodi:namedview
     id="base"
     pagecolor="#ffffff"
     bordercolor="#666666"
     borderopacity="1.0"
     inkscape:pageopacity="0.0"
     inkscape:pageshadow="2"
     inkscape:zoom="0.35"
     inkscape:cx="350"
     inkscape:cy="321.42857"
     inkscape:document-units="px"
     inkscape:current-layer="g7579"
     inkscape:window-width="880"
     inkscape:window-height="622"
     inkscape:window-x="5"
     inkscape:window-y="45"
     inkscape:showpageshadow="2"
     inkscape:pagecheckerboard="0"
     inkscape:deskcolor="#d1d1d1"
     inkscape:window-maximized="0" />
  <metadata
     id="metadata6317">
    <rdf:RDF>
      <cc:Work
         rdf:about="">
        <dc:format>image/svg+xml</dc:format>
        <dc:type
           rdf:resource="http://purl.org/dc/dcmitype/StillImage" />
      </cc:Work>
    </rdf:RDF>
  </metadata>
  <g
     inkscape:label="Capa 1"
     inkscape:groupmode="layer"
     id="layer1"
     transform="translate(-107.4078,-172.05911)">
    <g
       id="g7579"
       transform="matrix(29.329979,0,0,29.329979,-12447.671,-15732.122)">
      <polygon
         style="fill:#ed1c24"
         id="polygon7581"
         points="435.167,554.676 431.256,555.618 432.888,551.941 428.063,547 434.786,548.926 438.063,542.25 438.238,549.801 444.313,551.25 438.475,553.354 438.161,557.364 "
         transform="matrix(1.1918301,0,0,1.2126938,-82.212794,-115.23578)" />
      <polygon
         style="fill:#ed1c24"
         id="polygon7583"
         points="433.908,553.153 430.899,551.584 433.875,550.098 434.319,546.69 436.675,549.193 439.958,548.655 438.438,551.688 443.313,556.5 436.727,554.135 433.563,560 "
         transform="matrix(1.7576147,0,0,1.5049998,-327.7218,-279.09819)" />
      <polygon
         style="fill:#fafc0d;fill-opacity:1"
         id="polygon1"
         points="428.063,547 434.786,548.926 438.063,542.25 438.238,549.801 444.313,551.25 438.475,553.354 438.161,557.364 435.167,554.676 431.256,555.618 432.888,551.941 "
         transform="matrix(1.2757558,0,0,1.0999979,-117.94344,-54.223825)" />
      <polygon
         style="fill:#fafc0d;fill-opacity:1"
         id="polygon2"
         points="433.908,553.153 430.899,551.584 433.875,550.098 434.319,546.69 436.675,549.193 439.958,548.655 438.438,551.688 443.313,556.5 436.727,554.135 433.563,560 "
         transform="matrix(1.2757558,0,0,1.054881,-117.74862,-30.441107)" />
      <polygon
         style="fill:#fea50b;fill-opacity:1"
         id="polygon3"
         points="436.675,549.193 439.958,548.655 438.438,551.688 443.313,556.5 436.727,554.135 433.563,560 433.908,553.153 430.899,551.584 433.875,550.098 434.319,546.69 "
         transform="matrix(1.0286047,0,0,0.88745913,-9.9973461,61.85387)" />
      <polygon
         style="fill:#fea50b;fill-opacity:1"
         id="polygon4"
         points="428.063,547 434.786,548.926 438.063,542.25 438.238,549.801 444.313,551.25 438.475,553.354 438.161,557.364 435.167,554.676 431.256,555.618 432.888,551.941 "
         transform="matrix(0.6974919,0,0,0.71509394,133.6813,158.19205)" />
    </g>
  </g>
</svg>
