<?xml version="1.0" encoding="UTF-8" standalone="no"?>
<svg
   width="32"
   height="32"
   viewBox="0 0 32 32"
   fill="none"
   version="1.1"
   id="svg7"
   sodipodi:docname="sol.svg"
   inkscape:version="1.3.2 (091e20e, 2023-11-25)"
   xmlns:inkscape="http://www.inkscape.org/namespaces/inkscape"
   xmlns:sodipodi="http://sodipodi.sourceforge.net/DTD/sodipodi-0.dtd"
   xmlns="http://www.w3.org/2000/svg"
   xmlns:svg="http://www.w3.org/2000/svg">
  <defs
     id="defs7">
    <linearGradient
       id="SVGID_1_"
       gradientUnits="userSpaceOnUse"
       x1="360.87909"
       y1="351.45529"
       x2="141.213"
       y2="-69.293602"
       gradientTransform="matrix(0.06191096,0,0,-0.06191096,3.888209,25.670271)">
	<stop
   offset="0"
   style="stop-color:#00FFA3"
   id="stop1" />

	<stop
   offset="1"
   style="stop-color:#DC1FFF"
   id="stop2" />

</linearGradient>
    <linearGradient
       id="SVGID_3_"
       gradientUnits="userSpaceOnUse"
       x1="312.5484"
       y1="376.68799"
       x2="92.882202"
       y2="-44.061001"
       gradientTransform="matrix(0.06191096,0,0,-0.06191096,3.888209,25.670271)">
	<stop
   offset="0"
   style="stop-color:#00FFA3"
   id="stop5" />

	<stop
   offset="1"
   style="stop-color:#DC1FFF"
   id="stop6" />

</linearGradient>
    <linearGradient
       id="SVGID_2_"
       gradientUnits="userSpaceOnUse"
       x1="264.8291"
       y1="401.60141"
       x2="45.162998"
       y2="-19.147499"
       gradientTransform="matrix(0.06191096,0,0,-0.06191096,3.888209,25.670271)">
	<stop
   offset="0"
   style="stop-color:#00FFA3"
   id="stop3" />

	<stop
   offset="1"
   style="stop-color:#DC1FFF"
   id="stop4" />

</linearGradient>
  </defs>
  <sodipodi:namedview
     id="namedview7"
     pagecolor="#ffffff"
     bordercolor="#000000"
     borderopacity="0.25"
     inkscape:showpageshadow="2"
     inkscape:pageopacity="0.0"
     inkscape:pagecheckerboard="0"
     inkscape:deskcolor="#d1d1d1"
     inkscape:zoom="5.3267141"
     inkscape:cx="20.36903"
     inkscape:cy="16.61437"
     inkscape:window-width="1440"
     inkscape:window-height="900"
     inkscape:window-x="0"
     inkscape:window-y="0"
     inkscape:window-maximized="0"
     inkscape:current-layer="svg7" />
  <path
     d="M16 32C24.8366 32 32 24.8366 32 16C32 7.16344 24.8366 0 16 0C7.16344 0 0 7.16344 0 16C0 24.8366 7.16344 32 16 32Z"
     fill="#627EEA"
     id="path1"
     style="fill:#000102;fill-opacity:1" />
  <path
     class="st0"
     d="m 7.887654,20.958846 c 0.148585,-0.148584 0.352896,-0.23526 0.569584,-0.23526 h 19.650533 c 0.359083,0 0.538629,0.433377 0.284791,0.687209 l -3.881815,3.88182 c -0.14859,0.148585 -0.352895,0.235261 -0.569584,0.235261 H 4.290626 c -0.359079,0 -0.538624,-0.433377 -0.284787,-0.687215 z"
     id="path2-7"
     style="fill:url(#SVGID_1_);stroke-width:0.061911" />
  <path
     class="st1"
     d="m 7.887654,6.4654931 c 0.154779,-0.148585 0.359084,-0.23526 0.569584,-0.23526 h 19.650533 c 0.359083,0 0.538629,0.433377 0.284791,0.687209 l -3.881815,3.8818189 c -0.14859,0.148586 -0.352895,0.235261 -0.569584,0.235261 H 4.290626 c -0.359079,0 -0.538624,-0.433377 -0.284787,-0.687214 z"
     id="path4-9"
     style="fill:url(#SVGID_2_);stroke-width:0.061911" />
  <path
     class="st2"
     d="m 24.510747,13.665738 c -0.14859,-0.148591 -0.352895,-0.23526 -0.569584,-0.23526 H 4.290626 c -0.359079,0 -0.538624,0.433371 -0.284787,0.687208 l 3.881815,3.881815 c 0.148585,0.14859 0.352896,0.235265 0.569584,0.235265 h 19.650533 c 0.359083,0 0.538629,-0.433376 0.284791,-0.687214 z"
     id="path6-3"
     style="fill:url(#SVGID_3_);stroke-width:0.061911" />
</svg>
